<mxfile host="app.diagrams.net" modified="2022-08-10T21:31:12.701Z" agent="5.0 (Windows NT 10.0; Win64; x64) AppleWebKit/537.36 (KHTML, like Gecko) Chrome/104.0.0.0 Safari/537.36" etag="AIapBBNS0UbMcQ9Xn8hT" version="20.2.3" type="github">
  <diagram id="fRpFt_2I4HM4OCApwyHM" name="Page-1">
    <mxGraphModel dx="1422" dy="794" grid="1" gridSize="10" guides="1" tooltips="1" connect="1" arrows="1" fold="1" page="1" pageScale="1" pageWidth="850" pageHeight="1100" math="0" shadow="0">
      <root>
        <mxCell id="0" />
        <mxCell id="1" parent="0" />
        <mxCell id="jB3OHQUV2mV3nUZ_Sb22-6" value="&#xa;&lt;h2 style=&quot;margin: 0in 0in 0.0001pt; break-after: avoid; font-size: 16pt; font-family: &amp;quot;Times New Roman&amp;quot;; font-weight: normal; text-align: center;&quot; align=&quot;center&quot;&gt;&lt;b&gt;&lt;i&gt;&lt;img src=&quot;https://people.uwec.edu/hiltonts/101/CBAsample/Projectsample_files/image029.gif&quot; height=&quot;202&quot; width=&quot;242&quot;&gt;&lt;/i&gt;&lt;/b&gt;&lt;b&gt;&lt;i&gt;&lt;/i&gt;&lt;/b&gt;&lt;/h2&gt;&#xa;&#xa;" style="whiteSpace=wrap;html=1;aspect=fixed;" vertex="1" parent="1">
          <mxGeometry x="290" y="830" width="380" height="380" as="geometry" />
        </mxCell>
        <mxCell id="jB3OHQUV2mV3nUZ_Sb22-12" value="Wellington Site" style="whiteSpace=wrap;html=1;rounded=0;shadow=0;comic=0;strokeWidth=1;fontFamily=Verdana;fontSize=14;fillColor=#f5f5f5;strokeColor=none;fontStyle=1;verticalAlign=top;" vertex="1" parent="1">
          <mxGeometry x="260" y="30" width="1380" height="530.5" as="geometry" />
        </mxCell>
        <mxCell id="jB3OHQUV2mV3nUZ_Sb22-13" value="Auckland Site" style="whiteSpace=wrap;html=1;rounded=0;shadow=0;comic=0;strokeWidth=1;fontFamily=Verdana;fontSize=14;fillColor=#f5f5f5;strokeColor=none;fontStyle=1;verticalAlign=top;" vertex="1" parent="1">
          <mxGeometry x="360" y="580" width="1160" height="587" as="geometry" />
        </mxCell>
        <mxCell id="jB3OHQUV2mV3nUZ_Sb22-14" value="Route&lt;div&gt;Switch&lt;/div&gt;&lt;div&gt;Processor&lt;/div&gt;" style="shape=mxgraph.cisco.misc.route_switch_processor;html=1;dashed=0;fillColor=#036897;strokeColor=#ffffff;strokeWidth=2;verticalLabelPosition=bottom;verticalAlign=top;rounded=0;shadow=0;comic=0;fontFamily=Verdana;fontSize=12;" vertex="1" parent="1">
          <mxGeometry x="1200" y="110" width="64" height="86" as="geometry" />
        </mxCell>
        <mxCell id="jB3OHQUV2mV3nUZ_Sb22-15" style="edgeStyle=none;html=1;labelBackgroundColor=none;startFill=0;endArrow=none;endFill=0;strokeWidth=2;fontFamily=Verdana;fontSize=12;" edge="1" parent="1" target="jB3OHQUV2mV3nUZ_Sb22-22">
          <mxGeometry relative="1" as="geometry">
            <mxPoint x="1047.3354430379745" y="50" as="sourcePoint" />
          </mxGeometry>
        </mxCell>
        <mxCell id="jB3OHQUV2mV3nUZ_Sb22-16" style="edgeStyle=none;html=1;labelBackgroundColor=none;startFill=0;endArrow=none;endFill=0;strokeWidth=2;fontFamily=Verdana;fontSize=12;" edge="1" parent="1" target="jB3OHQUV2mV3nUZ_Sb22-47">
          <mxGeometry relative="1" as="geometry">
            <mxPoint x="1009.6062291434928" y="50" as="sourcePoint" />
          </mxGeometry>
        </mxCell>
        <mxCell id="jB3OHQUV2mV3nUZ_Sb22-17" style="edgeStyle=none;html=1;labelBackgroundColor=none;startFill=0;endArrow=none;endFill=0;strokeWidth=2;fontFamily=Verdana;fontSize=12;" edge="1" parent="1" target="jB3OHQUV2mV3nUZ_Sb22-49">
          <mxGeometry relative="1" as="geometry">
            <mxPoint x="1033.3151308304891" y="50" as="sourcePoint" />
          </mxGeometry>
        </mxCell>
        <mxCell id="jB3OHQUV2mV3nUZ_Sb22-18" style="edgeStyle=none;html=1;labelBackgroundColor=none;startFill=0;endArrow=none;endFill=0;strokeWidth=2;fontFamily=Verdana;fontSize=12;" edge="1" parent="1" source="jB3OHQUV2mV3nUZ_Sb22-20" target="jB3OHQUV2mV3nUZ_Sb22-24">
          <mxGeometry relative="1" as="geometry" />
        </mxCell>
        <mxCell id="jB3OHQUV2mV3nUZ_Sb22-19" style="edgeStyle=none;html=1;labelBackgroundColor=none;startFill=0;endArrow=none;endFill=0;strokeWidth=2;fontFamily=Verdana;fontSize=12;" edge="1" parent="1" source="jB3OHQUV2mV3nUZ_Sb22-20" target="jB3OHQUV2mV3nUZ_Sb22-23">
          <mxGeometry relative="1" as="geometry" />
        </mxCell>
        <mxCell id="jB3OHQUV2mV3nUZ_Sb22-20" value="" style="shape=mxgraph.cisco.switches.content_switch;html=1;dashed=0;fillColor=#036897;strokeColor=#ffffff;strokeWidth=2;verticalLabelPosition=bottom;verticalAlign=top;rounded=0;shadow=0;comic=0;fontFamily=Verdana;fontSize=12;" vertex="1" parent="1">
          <mxGeometry x="570" y="280" width="64" height="86" as="geometry" />
        </mxCell>
        <mxCell id="jB3OHQUV2mV3nUZ_Sb22-21" style="edgeStyle=none;html=1;labelBackgroundColor=none;startFill=0;endArrow=none;endFill=0;strokeWidth=2;fontFamily=Verdana;fontSize=12;" edge="1" parent="1" source="jB3OHQUV2mV3nUZ_Sb22-22" target="jB3OHQUV2mV3nUZ_Sb22-28">
          <mxGeometry relative="1" as="geometry" />
        </mxCell>
        <mxCell id="jB3OHQUV2mV3nUZ_Sb22-22" value="" style="shape=mxgraph.cisco.switches.content_switch;html=1;dashed=0;fillColor=#036897;strokeColor=#ffffff;strokeWidth=2;verticalLabelPosition=bottom;verticalAlign=top;rounded=0;shadow=0;comic=0;fontFamily=Verdana;fontSize=12;" vertex="1" parent="1">
          <mxGeometry x="1100" y="280" width="64" height="86" as="geometry" />
        </mxCell>
        <mxCell id="jB3OHQUV2mV3nUZ_Sb22-23" value="" style="shape=mxgraph.cisco.storage.cisco_file_engine;html=1;dashed=0;fillColor=#036897;strokeColor=#ffffff;strokeWidth=2;verticalLabelPosition=bottom;verticalAlign=top;rounded=0;shadow=0;comic=0;fontFamily=Verdana;fontSize=12;" vertex="1" parent="1">
          <mxGeometry x="360" y="376" width="90" height="64" as="geometry" />
        </mxCell>
        <mxCell id="jB3OHQUV2mV3nUZ_Sb22-24" value="" style="shape=mxgraph.cisco.misc.me1100;html=1;dashed=0;fillColor=#036897;strokeColor=#ffffff;strokeWidth=2;verticalLabelPosition=bottom;verticalAlign=top;rounded=0;shadow=0;comic=0;fontFamily=Verdana;fontSize=12;" vertex="1" parent="1">
          <mxGeometry x="360" y="275" width="91" height="48" as="geometry" />
        </mxCell>
        <mxCell id="jB3OHQUV2mV3nUZ_Sb22-25" style="edgeStyle=none;html=1;labelBackgroundColor=none;startFill=0;endArrow=none;endFill=0;strokeWidth=2;fontFamily=Verdana;fontSize=12;" edge="1" parent="1" source="jB3OHQUV2mV3nUZ_Sb22-28" target="jB3OHQUV2mV3nUZ_Sb22-29">
          <mxGeometry relative="1" as="geometry" />
        </mxCell>
        <mxCell id="jB3OHQUV2mV3nUZ_Sb22-26" style="edgeStyle=none;html=1;labelBackgroundColor=none;startFill=0;endArrow=none;endFill=0;strokeWidth=2;fontFamily=Verdana;fontSize=12;" edge="1" parent="1" source="jB3OHQUV2mV3nUZ_Sb22-28" target="jB3OHQUV2mV3nUZ_Sb22-30">
          <mxGeometry relative="1" as="geometry" />
        </mxCell>
        <mxCell id="jB3OHQUV2mV3nUZ_Sb22-27" style="edgeStyle=none;html=1;labelBackgroundColor=none;startFill=0;endArrow=none;endFill=0;strokeWidth=2;fontFamily=Verdana;fontSize=12;" edge="1" parent="1" source="jB3OHQUV2mV3nUZ_Sb22-28" target="jB3OHQUV2mV3nUZ_Sb22-51">
          <mxGeometry relative="1" as="geometry" />
        </mxCell>
        <mxCell id="jB3OHQUV2mV3nUZ_Sb22-28" value="" style="shape=mxgraph.cisco.security.ios_firewall;html=1;dashed=0;fillColor=#036897;strokeColor=#ffffff;strokeWidth=2;verticalLabelPosition=bottom;verticalAlign=top;rounded=0;shadow=0;comic=0;fontFamily=Verdana;fontSize=12;" vertex="1" parent="1">
          <mxGeometry x="1232" y="290" width="40" height="66" as="geometry" />
        </mxCell>
        <mxCell id="jB3OHQUV2mV3nUZ_Sb22-29" value="" style="shape=mxgraph.cisco.servers.server_with_router;html=1;dashed=0;fillColor=#036897;strokeColor=#ffffff;strokeWidth=2;verticalLabelPosition=bottom;verticalAlign=top;rounded=0;shadow=0;comic=0;fontFamily=Verdana;fontSize=12;" vertex="1" parent="1">
          <mxGeometry x="1320" y="235" width="38" height="64" as="geometry" />
        </mxCell>
        <mxCell id="jB3OHQUV2mV3nUZ_Sb22-30" value="" style="shape=mxgraph.cisco.servers.server_with_router;html=1;dashed=0;fillColor=#036897;strokeColor=#ffffff;strokeWidth=2;verticalLabelPosition=bottom;verticalAlign=top;rounded=0;shadow=0;comic=0;fontFamily=Verdana;fontSize=12;" vertex="1" parent="1">
          <mxGeometry x="1371" y="334" width="38" height="64" as="geometry" />
        </mxCell>
        <mxCell id="jB3OHQUV2mV3nUZ_Sb22-31" style="edgeStyle=none;html=1;labelBackgroundColor=none;startFill=0;endArrow=none;endFill=0;strokeWidth=2;fontFamily=Verdana;fontSize=12;" edge="1" parent="1" source="jB3OHQUV2mV3nUZ_Sb22-33" target="jB3OHQUV2mV3nUZ_Sb22-37">
          <mxGeometry relative="1" as="geometry" />
        </mxCell>
        <mxCell id="jB3OHQUV2mV3nUZ_Sb22-32" style="edgeStyle=none;html=1;labelBackgroundColor=none;startFill=0;endArrow=none;endFill=0;strokeWidth=2;fontFamily=Verdana;fontSize=12;" edge="1" parent="1" source="jB3OHQUV2mV3nUZ_Sb22-33" target="jB3OHQUV2mV3nUZ_Sb22-40">
          <mxGeometry relative="1" as="geometry" />
        </mxCell>
        <mxCell id="jB3OHQUV2mV3nUZ_Sb22-33" value="LAN" style="ellipse;shape=cloud;whiteSpace=wrap;html=1;rounded=0;shadow=0;comic=0;strokeWidth=1;fontFamily=Verdana;fontSize=12;" vertex="1" parent="1">
          <mxGeometry x="690" y="500" width="120" height="80" as="geometry" />
        </mxCell>
        <mxCell id="jB3OHQUV2mV3nUZ_Sb22-34" style="edgeStyle=none;html=1;labelBackgroundColor=none;startFill=0;endArrow=none;endFill=0;strokeWidth=2;fontFamily=Verdana;fontSize=12;" edge="1" parent="1" source="jB3OHQUV2mV3nUZ_Sb22-35" target="jB3OHQUV2mV3nUZ_Sb22-40">
          <mxGeometry relative="1" as="geometry" />
        </mxCell>
        <mxCell id="jB3OHQUV2mV3nUZ_Sb22-35" value="Cloud" style="ellipse;shape=cloud;whiteSpace=wrap;html=1;rounded=0;shadow=0;comic=0;strokeWidth=1;fontFamily=Verdana;fontSize=12;" vertex="1" parent="1">
          <mxGeometry x="974" y="500" width="120" height="80" as="geometry" />
        </mxCell>
        <mxCell id="jB3OHQUV2mV3nUZ_Sb22-36" value="Internet" style="ellipse;shape=cloud;whiteSpace=wrap;html=1;rounded=0;shadow=0;comic=0;strokeWidth=1;fontFamily=Verdana;fontSize=12;" vertex="1" parent="1">
          <mxGeometry x="1414" y="500" width="120" height="80" as="geometry" />
        </mxCell>
        <mxCell id="jB3OHQUV2mV3nUZ_Sb22-37" value="" style="shape=mxgraph.cisco.misc.route_switch_processor;html=1;dashed=0;fillColor=#036897;strokeColor=#ffffff;strokeWidth=2;verticalLabelPosition=bottom;verticalAlign=top;rounded=0;shadow=0;comic=0;fontFamily=Verdana;fontSize=12;" vertex="1" parent="1">
          <mxGeometry x="610" y="675" width="64" height="86" as="geometry" />
        </mxCell>
        <mxCell id="jB3OHQUV2mV3nUZ_Sb22-38" style="edgeStyle=none;html=1;labelBackgroundColor=none;startFill=0;endArrow=none;endFill=0;strokeWidth=2;fontFamily=Verdana;fontSize=12;" edge="1" parent="1" source="jB3OHQUV2mV3nUZ_Sb22-40" target="jB3OHQUV2mV3nUZ_Sb22-41">
          <mxGeometry relative="1" as="geometry" />
        </mxCell>
        <mxCell id="jB3OHQUV2mV3nUZ_Sb22-39" style="edgeStyle=none;html=1;labelBackgroundColor=none;startFill=0;endArrow=none;endFill=0;strokeWidth=2;fontFamily=Verdana;fontSize=12;" edge="1" parent="1" source="jB3OHQUV2mV3nUZ_Sb22-40" target="jB3OHQUV2mV3nUZ_Sb22-42">
          <mxGeometry relative="1" as="geometry" />
        </mxCell>
        <mxCell id="jB3OHQUV2mV3nUZ_Sb22-40" value="" style="shape=mxgraph.cisco.misc.route_switch_processor;html=1;dashed=0;fillColor=#036897;strokeColor=#ffffff;strokeWidth=2;verticalLabelPosition=bottom;verticalAlign=top;rounded=0;shadow=0;comic=0;fontFamily=Verdana;fontSize=12;" vertex="1" parent="1">
          <mxGeometry x="1050" y="724" width="64" height="86" as="geometry" />
        </mxCell>
        <mxCell id="jB3OHQUV2mV3nUZ_Sb22-41" value="" style="shape=mxgraph.cisco.misc.me1100;html=1;dashed=0;fillColor=#036897;strokeColor=#ffffff;strokeWidth=2;verticalLabelPosition=bottom;verticalAlign=top;rounded=0;shadow=0;comic=0;fontFamily=Verdana;fontSize=12;" vertex="1" parent="1">
          <mxGeometry x="770" y="694" width="91" height="48" as="geometry" />
        </mxCell>
        <mxCell id="jB3OHQUV2mV3nUZ_Sb22-42" value="" style="shape=mxgraph.cisco.storage.cisco_file_engine;html=1;dashed=0;fillColor=#036897;strokeColor=#ffffff;strokeWidth=2;verticalLabelPosition=bottom;verticalAlign=top;rounded=0;shadow=0;comic=0;fontFamily=Verdana;fontSize=12;" vertex="1" parent="1">
          <mxGeometry x="760" y="774" width="90" height="64" as="geometry" />
        </mxCell>
        <mxCell id="jB3OHQUV2mV3nUZ_Sb22-43" style="edgeStyle=none;html=1;labelBackgroundColor=none;startFill=0;endArrow=none;endFill=0;strokeWidth=2;fontFamily=Verdana;fontSize=12;" edge="1" parent="1">
          <mxGeometry relative="1" as="geometry">
            <mxPoint x="1128.5" y="838" as="sourcePoint" />
            <mxPoint x="1172.5016181229776" y="982" as="targetPoint" />
          </mxGeometry>
        </mxCell>
        <mxCell id="jB3OHQUV2mV3nUZ_Sb22-44" style="edgeStyle=none;html=1;labelBackgroundColor=none;startFill=0;endArrow=none;endFill=0;strokeWidth=2;fontFamily=Verdana;fontSize=12;" edge="1" parent="1">
          <mxGeometry relative="1" as="geometry">
            <mxPoint x="1051.6599999999999" y="846" as="sourcePoint" />
            <mxPoint x="1049.9998058252427" y="969" as="targetPoint" />
          </mxGeometry>
        </mxCell>
        <mxCell id="jB3OHQUV2mV3nUZ_Sb22-45" style="edgeStyle=none;html=1;labelBackgroundColor=none;startFill=0;endArrow=none;endFill=0;strokeWidth=2;fontFamily=Verdana;fontSize=12;" edge="1" parent="1">
          <mxGeometry relative="1" as="geometry">
            <mxPoint x="1002" y="838" as="sourcePoint" />
            <mxPoint x="951.9956634304208" y="971" as="targetPoint" />
          </mxGeometry>
        </mxCell>
        <mxCell id="jB3OHQUV2mV3nUZ_Sb22-46" style="edgeStyle=none;html=1;labelBackgroundColor=none;startFill=0;endArrow=none;endFill=0;strokeWidth=2;fontFamily=Verdana;fontSize=12;" edge="1" parent="1" source="jB3OHQUV2mV3nUZ_Sb22-47" target="jB3OHQUV2mV3nUZ_Sb22-33">
          <mxGeometry relative="1" as="geometry" />
        </mxCell>
        <mxCell id="jB3OHQUV2mV3nUZ_Sb22-47" value="" style="shape=mxgraph.cisco.routers.router;html=1;dashed=0;fillColor=#036897;strokeColor=#ffffff;strokeWidth=2;verticalLabelPosition=bottom;verticalAlign=top;rounded=0;shadow=0;comic=0;fontFamily=Verdana;fontSize=12;" vertex="1" parent="1">
          <mxGeometry x="740" y="430" width="78" height="53" as="geometry" />
        </mxCell>
        <mxCell id="jB3OHQUV2mV3nUZ_Sb22-48" style="edgeStyle=none;html=1;labelBackgroundColor=none;startFill=0;endArrow=none;endFill=0;strokeWidth=2;fontFamily=Verdana;fontSize=12;" edge="1" parent="1" source="jB3OHQUV2mV3nUZ_Sb22-49" target="jB3OHQUV2mV3nUZ_Sb22-35">
          <mxGeometry relative="1" as="geometry" />
        </mxCell>
        <mxCell id="jB3OHQUV2mV3nUZ_Sb22-49" value="" style="shape=mxgraph.cisco.routers.router;html=1;dashed=0;fillColor=#036897;strokeColor=#ffffff;strokeWidth=2;verticalLabelPosition=bottom;verticalAlign=top;rounded=0;shadow=0;comic=0;fontFamily=Verdana;fontSize=12;" vertex="1" parent="1">
          <mxGeometry x="988" y="420" width="78" height="53" as="geometry" />
        </mxCell>
        <mxCell id="jB3OHQUV2mV3nUZ_Sb22-50" style="edgeStyle=none;html=1;labelBackgroundColor=none;startFill=0;endArrow=none;endFill=0;strokeWidth=2;fontFamily=Verdana;fontSize=12;" edge="1" parent="1" source="jB3OHQUV2mV3nUZ_Sb22-51" target="jB3OHQUV2mV3nUZ_Sb22-36">
          <mxGeometry relative="1" as="geometry" />
        </mxCell>
        <mxCell id="jB3OHQUV2mV3nUZ_Sb22-51" value="" style="shape=mxgraph.cisco.routers.router;html=1;dashed=0;fillColor=#036897;strokeColor=#ffffff;strokeWidth=2;verticalLabelPosition=bottom;verticalAlign=top;rounded=0;shadow=0;comic=0;fontFamily=Verdana;fontSize=12;" vertex="1" parent="1">
          <mxGeometry x="1272" y="423" width="78" height="53" as="geometry" />
        </mxCell>
        <mxCell id="jB3OHQUV2mV3nUZ_Sb22-52" value="" style="shape=mxgraph.cisco.computers_and_peripherals.printer;sketch=0;html=1;pointerEvents=1;dashed=0;fillColor=#036897;strokeColor=#ffffff;strokeWidth=2;verticalLabelPosition=bottom;verticalAlign=top;align=center;outlineConnect=0;" vertex="1" parent="1">
          <mxGeometry x="810" y="874" width="91" height="34" as="geometry" />
        </mxCell>
        <mxCell id="jB3OHQUV2mV3nUZ_Sb22-53" value="" style="shape=mxgraph.cisco.computers_and_peripherals.macintosh;sketch=0;html=1;pointerEvents=1;dashed=0;fillColor=#036897;strokeColor=#ffffff;strokeWidth=2;verticalLabelPosition=bottom;verticalAlign=top;align=center;outlineConnect=0;" vertex="1" parent="1">
          <mxGeometry x="861" y="976" width="99" height="64" as="geometry" />
        </mxCell>
        <mxCell id="jB3OHQUV2mV3nUZ_Sb22-54" value="" style="shape=mxgraph.cisco.computers_and_peripherals.macintosh;sketch=0;html=1;pointerEvents=1;dashed=0;fillColor=#036897;strokeColor=#ffffff;strokeWidth=2;verticalLabelPosition=bottom;verticalAlign=top;align=center;outlineConnect=0;" vertex="1" parent="1">
          <mxGeometry x="974" y="976" width="99" height="64" as="geometry" />
        </mxCell>
        <mxCell id="jB3OHQUV2mV3nUZ_Sb22-55" value="" style="shape=mxgraph.cisco.computers_and_peripherals.macintosh;sketch=0;html=1;pointerEvents=1;dashed=0;fillColor=#036897;strokeColor=#ffffff;strokeWidth=2;verticalLabelPosition=bottom;verticalAlign=top;align=center;outlineConnect=0;" vertex="1" parent="1">
          <mxGeometry x="1101" y="976" width="99" height="64" as="geometry" />
        </mxCell>
        <mxCell id="jB3OHQUV2mV3nUZ_Sb22-56" value="" style="shape=mxgraph.cisco.computers_and_peripherals.macintosh;sketch=0;html=1;pointerEvents=1;dashed=0;fillColor=#036897;strokeColor=#ffffff;strokeWidth=2;verticalLabelPosition=bottom;verticalAlign=top;align=center;outlineConnect=0;" vertex="1" parent="1">
          <mxGeometry x="1232" y="976" width="99" height="64" as="geometry" />
        </mxCell>
        <mxCell id="jB3OHQUV2mV3nUZ_Sb22-57" style="edgeStyle=none;html=1;labelBackgroundColor=none;startFill=0;endArrow=none;endFill=0;strokeWidth=2;fontFamily=Verdana;fontSize=12;" edge="1" parent="1">
          <mxGeometry relative="1" as="geometry">
            <mxPoint x="1183" y="831" as="sourcePoint" />
            <mxPoint x="1227.0016181229776" y="975" as="targetPoint" />
          </mxGeometry>
        </mxCell>
      </root>
    </mxGraphModel>
  </diagram>
</mxfile>
